<svg xmlns="http://www.w3.org/2000/svg" viewBox="0 0 107.21 65.72">
   <g stroke="#4c4841" stroke-linecap="round" stroke-width="7.87" paint-order="fill markers stroke">
      <path fill="#eae5d7"
         d="M6.12 17.2c-4.3 3.42-.98 4.83-.6 17.13.36 11.87-3.1 16.3.47 19.33 5.5 4.67 17.54-20.94 19.74-16.4 3.46 7.12 10.4 17.12 19.97 21.07 22.16 9.13 63.26-.27 56.96-26.63C95.37 1.16 62.1.92 46.46 7.24c-7.83 3.16-14.84 14.42-20.5 25.74-2.2 4.4-15.34-19.36-19.84-15.78z" />
      <path fill="none" d="M79.22 20.06c3.86 5.06 5.2 7.79 6.58 15.76M65.52 20.49a37.4 37.4 0 0 1 6.58 15.76" />
   </g>
</svg>